<?xml version="1.0" encoding="utf-8"?>
<!-- Generator: Adobe Illustrator 24.2.1, SVG Export Plug-In . SVG Version: 6.00 Build 0)  -->
<svg version="1.1" id="Capa_1" xmlns="http://www.w3.org/2000/svg" xmlns:xlink="http://www.w3.org/1999/xlink" x="0px" y="0px"
	 viewBox="0 0 1000 800" style="enable-background:new 0 0 1000 800;" xml:space="preserve">
<style type="text/css">
	.st0{opacity:0.17;}
	.st1{fill-rule:evenodd;clip-rule:evenodd;fill:#C4C4C4;}
	.st2{opacity:0.25;}
</style>
<g class="st0">
	<path class="st1" d="M1943.54,2144.21l1,22l85,5c20-29,71-16,71,23c0,40-51,53-71,24l-82,4l15,295c69-11,138-47,148-121l-43,14
		c-13,5-23-14-11-23l75-55c5-4,11-4,16,0l76,55c12,9,3,27-11,23l-43-14c-9,211-187,186-250,308c-5,9-18,9-23,0
		c-62-121-241-99-251-306l-42,12c-14,4-23-14-12-23l76-55c5-4,11-4,15,0l77,55c11,8,3,27-11,23l-51-14c10,74,87,110,156,121l15-295
		l-82-4c-21,29-71,16-71-24c0-39,50-52,71-23l85-5l1-22c-82-36-59-166,35-166C2002.54,1978.21,2025.54,2108.21,1943.54,2144.21z
		 M1907.54,1991.21c84,0,102,119,23,144l2,44l104,5c11-26,51-18,51,10c0,29-40,37-51,10l-103,6l16,322c98-11,175-64,175-154l-60,20
		l75-56l77,56l-60-19c0,219-184,194-249,319c-63-122-249-102-249-318l-59,18l76-56l76,56l-68-19c0,91,86,142,182,153l16-322l-102-6
		c-11,27-51,19-51-10c0-28,40-36,51-10l104-5l2-44C1806.54,2110.21,1824.54,1991.21,1907.54,1991.21z M1907.54,2036.21
		c16,0,29,13,29,29s-13,29-29,29s-29-13-29-29S1891.54,2036.21,1907.54,2036.21z M1907.54,2049.21c-9,0-16,7-16,16s7,16,16,16
		s16-7,16-16S1916.54,2049.21,1907.54,2049.21z"/>
</g>
<g class="st2">
	<path class="st1" d="M559.34,274.56l-2.35,15.08l57.06,15.11c17.58-16.95,50.44-1.09,45.07,25.41
		c-5.51,27.18-41.95,28.98-51.54,6.52l-56.26-8.58l-30.46,202.49c48.39,2.03,100.23-12.92,117.22-61.81l-31.14,3.59
		c-9.52,1.61-13.7-12.68-4.3-17.14l58.53-27.03c3.95-2.03,8.02-1.2,10.87,2.2l44.06,47.84c6.91,7.77-1.68,18.76-10.64,14.11
		l-27.28-15.44c-35.19,142.11-152.67,100.6-212.29,174.81c-4.64,5.43-13.47,3.63-15.63-3.17
		c-25.45-90.75-150.09-100.47-128.36-242.48l-30.19,2.37c-10.06,0.79-13.7-12.68-4.98-17.28l59.21-26.89
		c3.95-2.03,8.02-1.2,10.19,2.07l44.73,47.98c6.37,6.95-1.68,18.76-10.64,14.11l-32.72-16.54c-3.4,51.65,43.95,86.72,89.31,103.7
		l50.84-198.35l-55.16-14.02c-18.26,16.81-50.44,1.09-44.93-26.09c5.37-26.5,41.13-28.44,51.41-5.84l58.44,8.32l3.71-14.81
		c-50.75-35.76-17.21-120.91,46.65-107.96C622.3,169.91,620.01,261.4,559.34,274.56z M555.96,165.65c57.07,11.57,52.9,94.9-4.22,101
		l-4.7,30.17l69.97,17.73c11.06-16.15,37.13-5.2,33.27,13.82c-4,19.7-32.27,19.63-36.03-0.23l-70.8-10.12l-33.5,220.97
		c68.1,6.03,127.71-19.37,140.11-80.51l-43.52,5.32l58.67-27.71l44.6,48.66l-38.15-21.18C641.5,612.35,519.93,570.01,458.55,645.98
		c-25.99-91.57-155.11-103.61-125.35-250.36l-42.56,4.1l59.35-27.57l43.92,48.52l-43.58-22.28
		c-12.54,61.82,38.86,108.32,102.57,129.02l55.24-216.56l-68.47-18.13c-11.19,16.83-37.27,5.88-33.27-13.82
		c3.86-19.02,32.14-18.95,36.03,0.23l71.35,10.93l7.42-29.62C470.95,232.58,499.58,154.21,555.96,165.65z M549.76,196.22
		c10.87,2.2,17.91,12.83,15.71,23.7c-2.2,10.87-12.83,17.91-23.7,15.71c-10.87-2.2-17.91-12.83-15.71-23.7
		C528.27,201.06,538.89,194.02,549.76,196.22z M547.97,205.05c-6.11-1.24-11.83,2.55-13.07,8.67s2.55,11.83,8.67,13.07
		s11.83-2.55,13.07-8.67C557.88,212.01,554.09,206.29,547.97,205.05z"/>
</g>
</svg>
