<?xml version="1.0" encoding="utf-8"?>
<!-- Generator: Adobe Illustrator 24.2.1, SVG Export Plug-In . SVG Version: 6.00 Build 0)  -->
<svg version="1.1" id="Capa_1" xmlns="http://www.w3.org/2000/svg" xmlns:xlink="http://www.w3.org/1999/xlink" x="0px" y="0px"
	 viewBox="0 0 50 50" style="enable-background:new 0 0 50 50;" xml:space="preserve">
<style type="text/css">
	.st0{fill:#00266F;}
</style>
<path class="st0" d="M25.08,46.47c11.82,0,21.38-9.56,21.38-21.38c0-11.78-9.53-21.55-21.38-21.55c-11.81,0-21.55,9.74-21.55,21.55
	C3.53,36.95,13.32,46.47,25.08,46.47z M14.05,40.45c1.56-5.94,7.11-10.77,14.22-12.92c1.67,4.91,2.69,10.1,3.01,15.38
	c-1.94,0.67-4.02,1.04-6.18,1.04C20.97,43.95,17.16,42.65,14.05,40.45z M33.72,41.86c-0.38-5.13-1.38-10.13-2.99-14.94
	c4.38-0.89,8.94-0.72,13.09,0.4C43.07,33.65,39.17,39.04,33.72,41.86z M28.44,21.09c4.27-1.59,8.79-4.23,11.25-8.04
	c2.6,3.2,4.18,7.27,4.26,11.7c-4.46-1.12-9.36-1.24-14.08-0.23C29.41,23.32,28.95,22.22,28.44,21.09z M37.91,11.13
	c-2.04,3.69-6.62,6.24-10.57,7.68c-2.21-4.35-4.92-8.32-8.08-11.85c1.84-0.59,3.79-0.91,5.83-0.91
	C30.03,6.05,34.54,7.98,37.91,11.13z M16.77,7.96c3.19,3.44,5.92,7.37,8.13,11.64c-5.52,1.59-11.99,2.13-18.4,1.36
	C7.77,15.24,11.62,10.47,16.77,7.96z M6.12,23.45c6.87,0.84,13.88,0.25,19.9-1.55c0.49,1.07,0.95,2.15,1.38,3.25
	c-6.91,2.1-13.17,6.82-15.46,13.57c-3.63-3.44-5.89-8.28-5.89-13.64C6.05,24.53,6.07,23.99,6.12,23.45z"/>
</svg>
