<?xml version="1.0" encoding="utf-8"?>
<!-- Generator: Adobe Illustrator 24.2.1, SVG Export Plug-In . SVG Version: 6.00 Build 0)  -->
<svg version="1.1" id="Capa_1" xmlns="http://www.w3.org/2000/svg" xmlns:xlink="http://www.w3.org/1999/xlink" x="0px" y="0px"
	 viewBox="0 0 102 88" style="enable-background:new 0 0 102 88;" xml:space="preserve">
<style type="text/css">
	.st0{fill:none;stroke:#C4C4C4;stroke-miterlimit:10;}
</style>
<g>
	<path class="st0" d="M13.25,5.07v9.03h6.77l1.75-3.5c0.28-0.55,1.01-1.01,1.63-1.01h11.29c0.62,0,1.36,0.45,1.63,1.01l1.75,3.5
		h13.55V5.07H13.25z"/>
	<path class="st0" d="M38.07,14.1L38.07,14.1l-1.75-3.51c-0.28-0.55-1.01-1.01-1.63-1.01H23.4c-0.62,0-1.35,0.45-1.63,1.01
		l-1.75,3.5l0,0h-6.78v67.72h38.38V14.1H38.07z"/>
	<rect x="13.25" y="20.87" class="st0" width="6.77" height="60.95"/>
	<rect x="13.25" y="20.87" class="st0" width="6.77" height="6.77"/>
	<rect x="24.53" y="22.57" class="st0" width="9.03" height="3.39"/>
	<rect x="38.08" y="22.57" class="st0" width="13.55" height="3.39"/>
	<rect x="33.56" y="29.34" class="st0" width="18.06" height="3.39"/>
	<rect x="33.56" y="36.11" class="st0" width="4.51" height="3.39"/>
	<rect x="42.59" y="36.11" class="st0" width="9.03" height="3.39"/>
	<rect x="33.56" y="42.88" class="st0" width="18.06" height="3.38"/>
	<rect x="24.53" y="49.66" class="st0" width="4.52" height="3.39"/>
	<rect x="33.56" y="49.66" class="st0" width="18.06" height="3.39"/>
	<rect x="29.05" y="56.43" class="st0" width="22.57" height="3.39"/>
	<rect x="29.05" y="63.2" class="st0" width="4.52" height="3.38"/>
	<rect x="38.08" y="63.2" class="st0" width="13.54" height="3.38"/>
	<rect x="33.56" y="69.97" class="st0" width="18.06" height="3.38"/>
	<rect x="13.25" y="27.65" class="st0" width="6.77" height="6.77"/>
	<rect x="13.25" y="34.42" class="st0" width="6.77" height="6.77"/>
	<rect x="13.25" y="41.19" class="st0" width="6.77" height="6.77"/>
	<rect x="13.25" y="47.96" class="st0" width="6.77" height="6.77"/>
	<rect x="13.25" y="54.74" class="st0" width="6.77" height="6.78"/>
	<rect x="13.25" y="61.51" class="st0" width="6.77" height="6.77"/>
	<rect x="13.25" y="68.28" class="st0" width="6.77" height="6.77"/>
	<rect x="13.25" y="75.05" class="st0" width="6.77" height="6.77"/>
	<path class="st0" d="M47.61,10.6c-0.28-0.55-1.01-1.01-1.63-1.01H34.69c0.62,0,1.36,0.45,1.63,1.01l1.75,3.5h2.24h9.04L47.61,10.6z
		"/>
	<rect x="51.62" y="14.1" class="st0" width="38.38" height="67.72"/>
	<rect x="70.81" y="59.25" class="st0" width="14.68" height="18.06"/>
	<rect x="51.62" y="41.19" class="st0" width="14.67" height="36.12"/>
	<rect x="51.62" y="18.62" class="st0" width="33.86" height="18.06"/>
	<rect x="51.62" y="5.07" class="st0" width="38.38" height="9.03"/>
	<rect x="83.79" y="7.89" class="st0" width="3.39" height="3.39"/>
	<rect x="78.15" y="7.89" class="st0" width="3.39" height="3.39"/>
	<rect x="72.51" y="7.89" class="st0" width="3.39" height="3.39"/>
	<path class="st0" d="M70.81,41.19h14.68H70.81z"/>
	<path class="st0" d="M70.81,45.7h14.68H70.81z"/>
	<path class="st0" d="M70.81,50.22h14.68H70.81z"/>
	<path class="st0" d="M70.81,54.74h14.68H70.81z"/>
</g>
</svg>
