<?xml version="1.0" encoding="utf-8"?>
<!-- Generator: Adobe Illustrator 24.2.1, SVG Export Plug-In . SVG Version: 6.00 Build 0)  -->
<svg version="1.1" id="Capa_1" xmlns="http://www.w3.org/2000/svg" xmlns:xlink="http://www.w3.org/1999/xlink" x="0px" y="0px"
	 viewBox="0 0 50 50" style="enable-background:new 0 0 50 50;" xml:space="preserve">
<style type="text/css">
	.st0{fill:#00266F;}
</style>
<g>
	<g>
		<path class="st0" d="M45.19,13.87c-2.09-3.57-4.91-6.4-8.49-8.49C33.13,3.29,29.23,2.25,25,2.25c-4.23,0-8.13,1.04-11.7,3.13
			c-3.57,2.08-6.4,4.91-8.49,8.49c-2.08,3.57-3.13,7.47-3.13,11.7c0,5.08,1.48,9.65,4.45,13.71c2.97,4.06,6.8,6.87,11.49,8.43
			c0.55,0.1,0.95,0.03,1.21-0.21c0.26-0.24,0.39-0.55,0.39-0.91c0-0.06-0.01-0.61-0.02-1.64c-0.01-1.03-0.02-1.93-0.02-2.7
			l-0.7,0.12c-0.45,0.08-1.01,0.12-1.69,0.11c-0.68-0.01-1.38-0.08-2.11-0.21c-0.73-0.13-1.41-0.43-2.03-0.91
			c-0.63-0.48-1.07-1.1-1.34-1.87l-0.3-0.7c-0.2-0.47-0.52-0.98-0.96-1.55c-0.44-0.57-0.88-0.95-1.32-1.15l-0.21-0.15
			c-0.14-0.1-0.27-0.22-0.39-0.36c-0.12-0.14-0.21-0.28-0.27-0.43c-0.06-0.14-0.01-0.26,0.15-0.35c0.16-0.09,0.46-0.14,0.88-0.14
			l0.61,0.09c0.4,0.08,0.91,0.32,1.5,0.73c0.6,0.4,1.09,0.93,1.47,1.58c0.47,0.83,1.03,1.46,1.69,1.9c0.66,0.44,1.32,0.65,1.99,0.65
			s1.24-0.05,1.73-0.15c0.49-0.1,0.94-0.25,1.37-0.46c0.18-1.36,0.68-2.4,1.49-3.13c-1.15-0.12-2.19-0.3-3.11-0.55
			c-0.92-0.24-1.87-0.64-2.85-1.18c-0.98-0.55-1.8-1.22-2.44-2.03c-0.65-0.81-1.18-1.87-1.59-3.19c-0.41-1.32-0.62-2.83-0.62-4.55
			c0-2.45,0.8-4.53,2.4-6.25c-0.75-1.84-0.68-3.91,0.21-6.19c0.59-0.18,1.46-0.05,2.61,0.41c1.15,0.46,2,0.85,2.54,1.17
			c0.54,0.32,0.97,0.6,1.29,0.82c1.88-0.53,3.83-0.79,5.83-0.79s3.95,0.26,5.83,0.79l1.15-0.73c0.79-0.49,1.72-0.93,2.79-1.34
			c1.07-0.4,1.89-0.52,2.46-0.33c0.91,2.29,0.99,4.35,0.24,6.19c1.6,1.72,2.4,3.81,2.4,6.25c0,1.72-0.21,3.24-0.62,4.57
			c-0.41,1.33-0.95,2.39-1.61,3.19c-0.66,0.8-1.48,1.47-2.46,2.02c-0.98,0.55-1.93,0.94-2.85,1.18c-0.92,0.24-1.96,0.43-3.11,0.55
			c1.05,0.91,1.58,2.35,1.58,4.31v6.41c0,0.36,0.13,0.67,0.38,0.91c0.25,0.24,0.65,0.31,1.2,0.21c4.7-1.56,8.53-4.37,11.49-8.43
			c2.96-4.06,4.45-8.63,4.45-13.71C48.32,21.34,47.27,17.44,45.19,13.87z"/>
	</g>
</g>
</svg>
