<?xml version="1.0" encoding="utf-8"?>
<!-- Generator: Adobe Illustrator 24.2.1, SVG Export Plug-In . SVG Version: 6.00 Build 0)  -->
<svg version="1.1" id="Capa_1" xmlns="http://www.w3.org/2000/svg" xmlns:xlink="http://www.w3.org/1999/xlink" x="0px" y="0px"
	 viewBox="0 0 50 50" style="enable-background:new 0 0 50 50;" xml:space="preserve">
<style type="text/css">
	.st0{fill:#00266F;}
</style>
<g>
	<path class="st0" d="M33.96,5H16.04C9.95,5,5,9.95,5,16.04v17.92C5,40.05,9.95,45,16.04,45h17.92C40.05,45,45,40.05,45,33.96V16.04
		C45,9.95,40.05,5,33.96,5z M41.45,33.96c0,4.13-3.36,7.49-7.49,7.49H16.04c-4.13,0-7.49-3.36-7.49-7.49V16.04
		c0-4.13,3.36-7.49,7.49-7.49h17.92c4.13,0,7.49,3.36,7.49,7.49L41.45,33.96L41.45,33.96z"/>
	<path class="st0" d="M25,14.69c-5.68,0-10.31,4.62-10.31,10.31c0,5.68,4.62,10.31,10.31,10.31S35.31,30.68,35.31,25
		C35.31,19.32,30.68,14.69,25,14.69z M25,31.76c-3.73,0-6.76-3.03-6.76-6.76c0-3.73,3.03-6.76,6.76-6.76s6.76,3.03,6.76,6.76
		C31.76,28.73,28.73,31.76,25,31.76z"/>
	<path class="st0" d="M35.74,11.68c-0.68,0-1.36,0.28-1.84,0.76c-0.49,0.48-0.76,1.15-0.76,1.84c0,0.68,0.28,1.36,0.76,1.84
		c0.48,0.48,1.15,0.76,1.84,0.76c0.69,0,1.36-0.28,1.84-0.76c0.49-0.49,0.76-1.16,0.76-1.84c0-0.69-0.28-1.36-0.76-1.84
		C37.1,11.96,36.43,11.68,35.74,11.68z"/>
</g>
</svg>
