<?xml version="1.0" encoding="utf-8"?>
<!-- Generator: Adobe Illustrator 24.2.1, SVG Export Plug-In . SVG Version: 6.00 Build 0)  -->
<svg version="1.1" id="Capa_1" xmlns="http://www.w3.org/2000/svg" xmlns:xlink="http://www.w3.org/1999/xlink" x="0px" y="0px"
	 viewBox="0 0 50 50" style="enable-background:new 0 0 50 50;" xml:space="preserve">
<style type="text/css">
	.st0{fill:#00266F;}
</style>
<g>
	<path class="st0" d="M9.36,5.27c-3.03,0-5.01,1.99-5.01,4.6c0,2.56,1.92,4.6,4.89,4.6h0.06c3.09,0,5.01-2.04,5.01-4.6
		C14.26,7.26,12.39,5.27,9.36,5.27z"/>
	<path class="st0" d="M4.88,18.1h8.85v26.63H4.88V18.1z"/>
	<path class="st0" d="M35.45,17.48c-4.77,0-7.98,4.49-7.98,4.49V18.1h-8.85v26.63h8.85V29.86c0-0.8,0.06-1.59,0.29-2.16
		c0.64-1.59,2.1-3.24,4.54-3.24c3.2,0,4.48,2.44,4.48,6.02v14.24h8.85V29.46C45.64,21.29,41.28,17.48,35.45,17.48z"/>
</g>
</svg>
