<?xml version="1.0" encoding="utf-8"?>
<!-- Generator: Adobe Illustrator 24.2.1, SVG Export Plug-In . SVG Version: 6.00 Build 0)  -->
<svg version="1.1" id="Capa_1" xmlns="http://www.w3.org/2000/svg" xmlns:xlink="http://www.w3.org/1999/xlink" x="0px" y="0px"
	 viewBox="0 0 102 88" style="enable-background:new 0 0 102 88;" xml:space="preserve">
<style type="text/css">
	.st0{fill:#C4C4C4;}
</style>
<g>
	<path class="st0" d="M16.6,59.98c0.78,0,1.52-0.52,1.74-1.33c0.44-1.77,1.03-3.51,1.7-5.21c0.37-0.92-0.07-1.96-1-2.29
		c-0.92-0.37-1.96,0.07-2.33,1c-0.74,1.85-1.33,3.73-1.81,5.62c-0.26,0.96,0.33,1.92,1.29,2.18C16.31,59.98,16.45,59.98,16.6,59.98z
		"/>
	<path class="st0" d="M59.95,35c2.11,0.15,3.88,0.22,5.51,0.22c1.85,0,3.51-0.11,5.1-0.3c0.96-0.11,1.66-1.03,1.55-2
		c-0.11-0.96-1-1.66-2-1.55c-2.73,0.33-5.65,0.37-9.9,0.04c-1-0.11-1.85,0.67-1.92,1.63C58.25,34.07,58.99,34.92,59.95,35z"/>
	<path class="st0" d="M29.09,34.81c-0.96,0.7-1.88,1.48-2.77,2.37c-1.66,1.66-3.22,3.51-4.62,5.54c-0.55,0.81-0.37,1.92,0.44,2.48
		c0.3,0.22,0.67,0.33,1,0.33c0.55,0,1.11-0.26,1.48-0.78c1.29-1.85,2.7-3.55,4.21-5.06c0.74-0.74,1.52-1.4,2.37-2
		c0.81-0.59,1-1.7,0.41-2.48C31.02,34.41,29.91,34.26,29.09,34.81z"/>
	<path class="st0" d="M50.01,30.53c-4.44-0.3-7.65-0.22-10.64,0.22c-0.96,0.15-1.63,1.07-1.48,2.03c0.15,0.89,0.89,1.52,1.77,1.52
		c0.07,0,0.18,0,0.3-0.04c2.7-0.41,5.69-0.48,9.87-0.18c0.96,0.07,1.85-0.67,1.88-1.66C51.71,31.45,50.97,30.6,50.01,30.53z"/>
	<path class="st0" d="M78.51,30.78c0.33,0.52,0.92,0.81,1.52,0.81c0.33,0,0.67-0.07,0.96-0.3c1.7-1.07,3.25-2.4,4.69-3.99
		c0.67-0.74,0.63-1.85-0.11-2.51c-0.74-0.67-1.85-0.63-2.51,0.11c-1.22,1.33-2.55,2.48-3.99,3.4
		C78.21,28.86,77.99,29.97,78.51,30.78z"/>
	<path class="st0" d="M92.81,10.6c-0.3-0.3-0.74-0.3-1,0l-7.02,6.91l-3.4-3.47c-0.26-0.3-0.74-0.3-1,0c-0.3,0.26-0.3,0.74,0,1
		l4.4,4.47l7.98-7.91C93.07,11.34,93.07,10.9,92.81,10.6z"/>
	<path class="st0" d="M57.55,56.36l-3.99,3.99l-3.99-3.99c-0.3-0.3-0.74-0.3-1,0c-0.26,0.3-0.3,0.74,0,1l3.99,3.99l-3.99,3.99
		c-0.3,0.3-0.3,0.74,0,1c0.15,0.15,0.33,0.22,0.52,0.22s0.37-0.07,0.52-0.22l3.99-3.99l3.99,3.99c0.15,0.15,0.33,0.22,0.52,0.22
		s0.37-0.07,0.52-0.22c0.3-0.3,0.3-0.74,0-1l-3.99-3.99l3.99-3.99c0.3-0.3,0.3-0.74,0-1C58.33,56.1,57.85,56.06,57.55,56.36z"/>
	<path class="st0" d="M20.44,23.5c0.15,0.15,0.33,0.22,0.52,0.22c0.18,0,0.37-0.07,0.52-0.22l3.99-3.99l3.99,3.99
		c0.15,0.15,0.33,0.22,0.52,0.22c0.18,0,0.37-0.07,0.52-0.22c0.3-0.3,0.3-0.74,0-1l-4.07-3.99l3.99-3.99c0.3-0.3,0.3-0.74,0-1
		c-0.3-0.3-0.74-0.3-1,0l-3.99,3.99l-3.99-3.99c-0.3-0.3-0.74-0.3-1,0c-0.26,0.3-0.3,0.74,0,1l3.99,3.99l-3.99,3.99
		C20.15,22.8,20.15,23.24,20.44,23.5z"/>
	<path class="st0" d="M8.58,68.67c0,3.44,2.81,6.25,6.25,6.25s6.25-2.81,6.25-6.25s-2.81-6.25-6.25-6.25S8.58,65.19,8.58,68.67z
		 M19.67,68.67c0,2.66-2.18,4.84-4.84,4.84s-4.84-2.18-4.84-4.84s2.18-4.84,4.84-4.84S19.67,66.01,19.67,68.67z"/>
</g>
</svg>
