<?xml version="1.0" encoding="utf-8"?>
<!-- Generator: Adobe Illustrator 24.2.1, SVG Export Plug-In . SVG Version: 6.00 Build 0)  -->
<svg version="1.1" id="Capa_1" xmlns="http://www.w3.org/2000/svg" xmlns:xlink="http://www.w3.org/1999/xlink" x="0px" y="0px"
	 viewBox="0 0 1000 800" style="enable-background:new 0 0 1000 800;" xml:space="preserve">
<style type="text/css">
	.st0{opacity:0.17;}
	.st1{fill-rule:evenodd;clip-rule:evenodd;fill:#C4C4C4;}
	.st2{opacity:0.29;}
	.st3{fill:#E6E6E6;}
</style>
<g class="st0">
	<path class="st1" d="M1943.54,2144.21l1,22l85,5c20-29,71-16,71,23c0,40-51,53-71,24l-82,4l15,295c69-11,138-47,148-121l-43,14
		c-13,5-23-14-11-23l75-55c5-4,11-4,16,0l76,55c12,9,3,27-11,23l-43-14c-9,211-187,186-250,308c-5,9-18,9-23,0
		c-62-121-241-99-251-306l-42,12c-14,4-23-14-12-23l76-55c5-4,11-4,15,0l77,55c11,8,3,27-11,23l-51-14c10,74,87,110,156,121l15-295
		l-82-4c-21,29-71,16-71-24c0-39,50-52,71-23l85-5l1-22c-82-36-59-166,35-166C2002.54,1978.21,2025.54,2108.21,1943.54,2144.21z
		 M1907.54,1991.21c84,0,102,119,23,144l2,44l104,5c11-26,51-18,51,10c0,29-40,37-51,10l-103,6l16,322c98-11,175-64,175-154l-60,20
		l75-56l77,56l-60-19c0,219-184,194-249,319c-63-122-249-102-249-318l-59,18l76-56l76,56l-68-19c0,91,86,142,182,153l16-322l-102-6
		c-11,27-51,19-51-10c0-28,40-36,51-10l104-5l2-44C1806.54,2110.21,1824.54,1991.21,1907.54,1991.21z M1907.54,2036.21
		c16,0,29,13,29,29s-13,29-29,29s-29-13-29-29S1891.54,2036.21,1907.54,2036.21z M1907.54,2049.21c-9,0-16,7-16,16s7,16,16,16
		s16-7,16-16S1916.54,2049.21,1907.54,2049.21z"/>
</g>
<g class="st2">
	<path class="st3" d="M537.23,400.5c0-19.25-15.61-34.86-34.86-34.86s-34.86,15.61-34.86,34.86s15.61,34.86,34.86,34.86
		S537.23,419.75,537.23,400.5z"/>
	<path class="st3" d="M502.37,269.78c-72.19,0-130.72,58.53-130.72,130.72s58.53,130.72,130.72,130.72S633.09,472.7,633.09,400.5
		C633.02,328.34,574.54,269.86,502.37,269.78z M615.66,400.5c0,2.94-0.22,5.83-0.44,8.71h-52.55c0.93-5.77,0.93-11.66,0-17.43h52.54
		C615.44,394.66,615.66,397.56,615.66,400.5z M575.99,486.44l-37.15-37.13c4.68-3.51,8.83-7.66,12.34-12.34l37.15,37.15
		C584.53,478.53,580.4,482.65,575.99,486.44L575.99,486.44z M416.43,474.11l37.14-37.15c3.5,4.68,7.65,8.84,12.33,12.35
		l-37.15,37.16C424.34,482.66,420.22,478.53,416.43,474.11z M389.08,400.5c0-2.95,0.22-5.84,0.44-8.71h52.54
		c-0.93,5.77-0.93,11.66,0,17.43h-52.54C389.3,406.33,389.08,403.44,389.08,400.5z M428.75,314.56l37.15,37.14
		c-4.67,3.5-8.83,7.66-12.33,12.33l-37.15-37.15C420.21,322.47,424.34,318.35,428.75,314.56z M443.03,304.18
		c10.25-6.36,21.46-11.02,33.2-13.81v47.06L443.03,304.18z M439.25,374.36h-47c2.79-11.73,7.45-22.94,13.8-33.19L439.25,374.36z
		 M439.25,426.65l-33.19,33.19c-6.35-10.25-11.01-21.46-13.8-33.19H439.25z M476.23,463.61v47.01c-11.74-2.79-22.95-7.45-33.2-13.8
		L476.23,463.61z M458.8,400.5c0-24.06,19.51-43.57,43.57-43.57s43.57,19.51,43.57,43.57s-19.51,43.57-43.57,43.57
		S458.8,424.57,458.8,400.5z M561.7,496.82c-10.25,6.35-21.45,11.01-33.19,13.8v-46.99L561.7,496.82z M565.49,426.65h47.01
		c-2.79,11.73-7.45,22.94-13.8,33.19L565.49,426.65z M565.49,374.36l33.2-33.2c6.35,10.26,11.01,21.47,13.8,33.2H565.49z
		 M551.18,364.03c-3.51-4.68-7.66-8.83-12.34-12.33l37.14-37.15c4.42,3.79,8.54,7.91,12.32,12.32L551.18,364.03z M528.52,337.37v-47
		c11.73,2.79,22.94,7.45,33.19,13.8L528.52,337.37z M511.09,287.65v52.54c-2.88-0.44-5.8-0.67-8.71-0.69
		c-2.92,0.02-5.83,0.25-8.71,0.7v-52.55c2.88-0.22,5.77-0.44,8.71-0.44C505.32,287.21,508.2,287.43,511.09,287.65z M493.66,513.36
		V460.8c5.77,0.93,11.66,0.93,17.43,0v52.54c-2.89,0.23-5.79,0.44-8.71,0.44c-2.93,0-5.84-0.22-8.71-0.44V513.36z"/>
	<path class="st3" d="M764.35,378.07c-10.17-11.81-26.87-15.57-41.12-9.26c-9.81,4.1-20.4,5.99-31.02,5.55h-8.94
		c-4.35-30.21-16.23-58.85-34.55-83.26l6.36-6.36c7.2-7.82,16.02-13.96,25.85-18c4.68-1.71,8.93-4.43,12.45-7.97
		c13.62-13.61,13.63-35.68,0.02-49.3c-1.47-1.47-3.07-2.81-4.78-3.99c-11.99-8.23-27.82-8.23-39.81,0
		c-5.03,3.51-9.05,8.28-11.63,13.84c-4.1,9.81-9.93,18.8-17.21,26.55l-8.23,8.23c-24.41-18.31-53.03-30.18-83.22-34.52v-8.93
		c-0.44-10.62,1.46-21.2,5.56-31.01c2.09-4.52,3.16-9.45,3.15-14.43c0-19.25-15.6-34.86-34.85-34.86c-2.08,0-4.15,0.18-6.19,0.55
		c-18.94,3.42-31.53,21.56-28.1,40.5c0.35,1.94,0.86,3.84,1.53,5.69c4.04,9.83,6.28,20.31,6.61,30.93v11.56
		c-30.21,4.33-58.84,16.21-83.25,34.52l-8.24-8.24c-7.28-7.75-13.11-16.75-17.21-26.56c-8.15-17.44-28.89-24.98-46.34-16.83
		c-17.44,8.15-24.98,28.89-16.83,46.34c1.73,3.69,4.08,7.05,6.97,9.93c3.52,3.53,7.77,6.24,12.44,7.96
		c9.83,4.04,18.65,10.19,25.85,18l6.37,6.37c-18.33,24.42-30.21,53.06-34.54,83.29h-8.94c-10.62,0.44-21.21-1.46-31.02-5.55
		c-14.25-6.31-30.95-2.54-41.12,9.27c-12.38,14.74-10.47,36.73,4.27,49.11c6.28,5.28,14.22,8.17,22.43,8.17
		c4.06,0.01,8.09-0.7,11.9-2.1c9.82-4.03,20.28-6.27,30.89-6.61h11.59c4.34,30.2,16.2,58.82,34.51,83.22l-8.24,8.25
		c-7.76,7.27-16.76,13.1-26.57,17.2c-17.43,8.18-24.93,28.94-16.75,46.36c5.28,11.25,16.14,18.84,28.52,19.92
		c1.01,0.08,2.01,0.12,3.02,0.12c9.24,0.01,18.1-3.66,24.63-10.2c3.54-3.51,6.26-7.76,7.97-12.44c4.05-9.83,10.2-18.65,18.02-25.85
		l6.38-6.38c24.42,18.33,53.06,30.21,83.29,34.55v11.58c-0.33,10.63-2.57,21.11-6.61,30.95c-6.56,18.1,2.79,38.09,20.89,44.65
		c1.85,0.67,3.75,1.18,5.69,1.53c2.01,0.35,4.06,0.53,6.1,0.53c19.25,0.04,34.89-15.53,34.94-34.78c0-0.03,0-0.05,0-0.08
		c0.01-4.98-1.07-9.9-3.16-14.42c-4.1-9.81-6-20.4-5.55-31.02v-8.95c30.2-4.34,58.82-16.2,83.23-34.5l6.37,6.37
		c7.82,7.19,13.97,16.02,18.01,25.85c1.71,4.68,4.43,8.93,7.97,12.44c6.53,6.54,15.39,10.21,24.64,10.2c1,0,2-0.04,3.02-0.12
		c19.18-1.68,33.36-18.6,31.68-37.77c-1.09-12.37-8.67-23.23-19.92-28.51c-9.81-4.1-18.81-9.94-26.55-17.22l-8.24-8.24
		c18.32-24.41,30.21-53.05,34.54-83.26h11.59c10.63,0.34,21.11,2.57,30.95,6.61c3.8,1.4,7.81,2.11,11.86,2.11
		c19.25-0.02,34.84-15.64,34.83-34.89c-0.01-8.19-2.9-16.12-8.17-22.39L764.35,378.07z M632.3,258.23
		c8.7-9.23,15.71-19.91,20.7-31.57c1.29-2.77,3.3-5.15,5.82-6.88c5.98-4.02,13.8-4.02,19.77,0c7.94,5.44,9.97,16.29,4.53,24.23
		c-0.61,0.89-1.3,1.72-2.06,2.48c-1.73,1.74-3.81,3.08-6.1,3.94c-12.23,4.86-23.22,12.37-32.21,21.98l-5.19,5.19
		c-3.91-4.31-8.01-8.41-12.31-12.32L632.3,258.23z M493.66,208.01c-0.37-12.67-2.96-25.18-7.67-36.95
		c-1.05-2.88-1.31-5.98-0.77-8.99c1.36-7.07,6.88-12.61,13.94-14c9.46-1.77,18.57,4.46,20.34,13.92c0.2,1.06,0.3,2.14,0.3,3.23
		c0.01,2.46-0.53,4.9-1.56,7.14c-5.19,12.1-7.63,25.19-7.16,38.34v7.28c-2.9-0.14-5.77-0.44-8.71-0.44s-5.81,0.3-8.71,0.44
		L493.66,208.01z M361.96,272.4c-8.96-9.62-19.94-17.14-32.14-22.02c-2.29-0.85-4.37-2.19-6.1-3.93c-6.82-6.8-6.83-17.83-0.03-24.65
		c0.76-0.77,1.6-1.46,2.49-2.07c5.98-4.02,13.79-4.02,19.77,0c2.52,1.74,4.53,4.12,5.82,6.89c4.99,11.65,12,22.34,20.7,31.56
		l7.06,7.06c-4.29,3.91-8.4,8.02-12.31,12.32L361.96,272.4z M309.87,409.22c-12.67,0.36-25.18,2.96-36.94,7.68
		c-2.87,1.06-5.98,1.32-8.99,0.76c-7.08-1.36-12.62-6.87-14.01-13.94c-0.96-5.13,0.43-10.41,3.8-14.4
		c5.07-5.87,13.36-7.76,20.47-4.67c12.09,5.19,25.19,7.64,38.34,7.16h7.29c-0.14,2.91-0.44,5.77-0.44,8.71s0.31,5.8,0.44,8.71
		L309.87,409.22z M374.27,540.9c-9.63,8.96-17.16,19.94-22.05,32.15c-0.85,2.3-2.19,4.38-3.94,6.1c-3.61,3.68-8.7,5.53-13.83,5.04
		c-5.2-0.44-9.93-3.2-12.87-7.5c-4.03-5.97-4.03-13.79,0-19.76c1.74-2.52,4.12-4.53,6.89-5.83c11.66-4.99,22.35-11.99,31.57-20.7
		l7.07-7.07c3.91,4.29,8.02,8.4,12.32,12.31L374.27,540.9z M518.24,628.68c1.04,2.23,1.57,4.66,1.57,7.12
		c0.01,9.63-7.79,17.44-17.41,17.45c-1.08,0-2.16-0.1-3.22-0.3c-7.06-1.39-12.58-6.93-13.94-14c-0.54-3.02-0.28-6.12,0.77-9
		c4.71-11.77,7.3-24.28,7.67-36.95v-9.93c2.9,0.14,5.77,0.44,8.71,0.44s5.8-0.31,8.71-0.44v7.29
		C510.62,603.5,513.06,616.59,518.24,628.68z M644.6,530.45c9.22,8.7,19.91,15.71,31.56,20.7c2.77,1.29,5.15,3.3,6.89,5.82
		c4.03,5.98,4.03,13.8,0,19.77c-5.44,7.94-16.29,9.97-24.23,4.53c-0.89-0.61-1.72-1.3-2.48-2.06c-1.74-1.73-3.08-3.81-3.93-6.1
		c-4.89-12.21-12.41-23.19-22.04-32.16l-5.23-5.23c4.3-3.92,8.41-8.02,12.32-12.31L644.6,530.45z M502.37,566.08
		c-91.45,0-165.58-74.13-165.58-165.58s74.13-165.58,165.58-165.58s165.58,74.13,165.58,165.58
		C667.86,491.91,593.78,565.98,502.37,566.08z M754.81,403.7c-1.39,7.07-6.93,12.58-14,13.94c-3.01,0.56-6.12,0.3-8.99-0.76
		c-11.77-4.71-24.28-7.31-36.95-7.67h-9.94c0.14-2.91,0.44-5.78,0.44-8.71c0-2.94-0.3-5.8-0.44-8.71h7.29
		c13.15,0.48,26.25-1.97,38.34-7.16c7.11-3.1,15.41-1.21,20.47,4.66C754.38,393.28,755.77,398.57,754.81,403.7z"/>
	<rect x="493.66" y="243.64" class="st3" width="17.42" height="17.43"/>
	<rect x="493.66" y="539.94" class="st3" width="17.42" height="17.43"/>
	<rect x="641.81" y="391.79" class="st3" width="17.42" height="17.43"/>
	<rect x="345.51" y="391.79" class="st3" width="17.42" height="17.43"/>
	
		<rect x="594.62" y="496.35" transform="matrix(0.707 -0.7072 0.7072 0.707 -179.3582 577.2443)" class="st3" width="24.64" height="17.44"/>
	
		<rect x="385.47" y="287.2" transform="matrix(0.707 -0.7072 0.7072 0.707 -92.725 368.0409)" class="st3" width="24.64" height="17.44"/>
	
		<rect x="598.23" y="283.6" transform="matrix(0.7071 -0.7071 0.7071 0.7071 -31.4752 515.8499)" class="st3" width="17.44" height="24.64"/>
	
		<rect x="389.08" y="492.75" transform="matrix(0.7071 -0.7071 0.7071 0.7071 -240.6268 429.2171)" class="st3" width="17.44" height="24.64"/>
</g>
</svg>
