<?xml version="1.0" encoding="utf-8"?>
<!-- Generator: Adobe Illustrator 24.2.1, SVG Export Plug-In . SVG Version: 6.00 Build 0)  -->
<svg version="1.1" id="Capa_1" xmlns="http://www.w3.org/2000/svg" xmlns:xlink="http://www.w3.org/1999/xlink" x="0px" y="0px"
	 viewBox="0 0 102 88" style="enable-background:new 0 0 102 88;" xml:space="preserve">
<style type="text/css">
	.st0{fill:#C4C4C4;}
</style>
<g>
	<g>
		<path class="st0" d="M26.19,26.27c-5.15,0-9.33,4.19-9.33,9.33s4.19,9.33,9.33,9.33c5.14,0,9.33-4.18,9.33-9.33
			S31.33,26.27,26.19,26.27z M26.19,27.21c2.08,0,3.98,0.76,5.44,2.01c-2.13,2.41-3.86,4.39-5.27,5.99l-6.17-5.48
			C21.72,28.18,23.84,27.21,26.19,27.21z M17.79,35.6c0-1.95,0.67-3.74,1.79-5.17l6.16,5.48c-3.22,3.68-4.55,5.26-5.1,5.98
			C18.9,40.35,17.79,38.11,17.79,35.6z M21.36,42.46c0.65-0.81,2.7-3.17,5.09-5.92l5.64,5.02c-1.52,1.51-3.6,2.44-5.91,2.44
			C24.39,44,22.73,43.43,21.36,42.46z M32.72,40.87l-5.65-5.03c1.75-2,3.62-4.13,5.24-5.97c1.41,1.5,2.28,3.52,2.28,5.73
			C34.58,37.6,33.88,39.43,32.72,40.87z"/>
		<path class="st0" d="M37.63,37.43c0.32,1.61,1.07,3.12,2.16,4.36l0.7-0.62c-0.98-1.11-1.65-2.47-1.94-3.92L37.63,37.43z"/>
		<path class="st0" d="M37.95,32.58l0.88,0.3c0.48-1.41,1.33-2.66,2.45-3.63l-0.61-0.71C39.43,29.62,38.49,31.02,37.95,32.58z"/>
		<path class="st0" d="M53.19,30.18c0.96,1.13,1.6,2.5,1.86,3.96l0.92-0.17c-0.29-1.62-1-3.14-2.07-4.4L53.19,30.18z"/>
		<path class="st0" d="M52.41,41.84l0.63,0.69c1.22-1.1,2.13-2.51,2.63-4.09l-0.89-0.28C54.33,39.58,53.51,40.85,52.41,41.84z"/>
		<path class="st0" d="M45.05,26.43l0.17,0.92c1.36-0.26,2.78-0.17,4.11,0.25c0.09,0.03,0.17,0.06,0.26,0.09l0.31-0.88
			c-0.09-0.03-0.18-0.06-0.28-0.09C48.14,26.24,46.57,26.15,45.05,26.43z"/>
		<path class="st0" d="M67.38,26.27c-5.15,0-9.33,4.19-9.33,9.33s4.18,9.33,9.33,9.33c5.14,0,9.33-4.18,9.33-9.33
			S72.52,26.27,67.38,26.27z M67.38,27.21c2.08,0,3.97,0.76,5.44,2.02c-2.13,2.41-3.86,4.38-5.27,5.99l-6.16-5.48
			C62.91,28.18,65.03,27.21,67.38,27.21z M58.98,35.6c0-1.95,0.67-3.74,1.79-5.17l6.16,5.48c-3.22,3.68-4.55,5.26-5.1,5.98
			C60.09,40.35,58.98,38.11,58.98,35.6z M62.55,42.46c0.65-0.81,2.7-3.17,5.09-5.92l5.64,5.02C71.77,43.07,69.68,44,67.38,44
			C65.58,44,63.91,43.43,62.55,42.46z M73.91,40.87l-5.65-5.03c1.75-2,3.62-4.13,5.24-5.97c1.41,1.5,2.28,3.52,2.28,5.73
			C75.77,37.6,75.07,39.43,73.91,40.87z"/>
		<path class="st0" d="M89.48,20.73l0.75-0.55l-5.59-7.63V6.58l4.84,6.91l0.75-0.55L84.65,5l0,0H12.27v71.52l0,0l5.91,7.79
			l0.75-0.55l-5.51-7.24h4.68l5.71,7.79l0.75-0.55l-5.31-7.24h4.52l5.71,7.79l0.75-0.55l-5.31-7.24h4.37l5.87,7.74l0.75-0.55
			l-6.02-7.94c0,0-2.76-2.44-4.08-3.62c-1.24-1.12-2.48-2.23-3.7-3.36c-0.44-0.41-0.94-0.9-0.92-1.18c0.02-0.31,0.79-0.85,1.09-1.05
			c0.87-0.6,1.83-0.89,2.95-0.89c0.67,0,1.41,0.1,2.24,0.32c2.95,0.76,5.33,2.53,7.46,4.34c0.88,0.75,2.06,1.68,3.37,2.27
			c0.64,0.29,1.23,0.44,1.78,0.44h0c1.61,0,2.58-1.25,2.59-3.33c0.02-3.89,0.02-7.78,0.03-11.66c0-2.47,0.01-4.94,0.01-7.41
			c0-1.12,0.02-2.25,0.02-3.37c0.02-1.47,0.03-2.93,0.02-4.4c0-1.46,0.61-2.73,1.93-3.98c0.93-0.88,2.22-0.85,3.2,0.05
			c1.2,1.1,1.8,2.46,1.8,4.05c0,3.4,0,6.8,0,10.2l0,6.15l0.84-1.09c1.43-1.86,2.75-2.4,4.42-1.8c1.98,0.71,2.36,2.36,2.33,4.61
			l-0.02,1.32l0.85-1.01c1.44-1.72,2.73-2.23,4.27-1.69c1.64,0.57,2.39,1.77,2.37,3.79l-0.01,1.27l1.01-1.17
			c0.2-0.23,0.32-0.36,0.43-0.5c1.01-1.18,2.28-1.56,3.72-1.1c1.47,0.46,2.32,1.57,2.33,3.05c0.04,3.36,0.03,11.55,0.03,11.55
			L78,84.27l0.76-0.55l-5.28-7.2h4.5l5.68,7.75l0.76-0.55l-5.28-7.2h4.66l5.68,7.75l0.75-0.55l-5.59-7.63v-6.36l4.84,6.6l0.75-0.55
			l-5.59-7.63v-6.36l4.84,6.6l0.75-0.55l-5.59-7.63v-6.36l4.84,6.6l0.75-0.55l-5.59-7.63V45.9l4.84,6.6l0.75-0.55l-5.59-7.63v-6.36
			l4.84,6.6L90.24,44l-5.59-7.63v-6.36l4.84,6.6l0.75-0.55l-5.59-7.63v-6.36l4.84,6.6l0.75-0.55l-5.59-7.63v-6.36L89.48,20.73z
			 M83.71,75.58H73.23c0.03-3.68-0.01-7.4-0.04-10.63c-0.02-1.88-1.14-3.34-2.99-3.93c-1.73-0.54-3.35-0.1-4.58,1.24
			c-0.28-1.76-1.25-2.94-2.92-3.52c-1.61-0.56-3.07-0.21-4.49,1.12c-0.13-1.81-0.73-3.56-2.92-4.34c-1.73-0.62-3.22-0.26-4.64,1.15
			l0-3.53c0-3.4,0-6.8,0-10.2c0-1.86-0.71-3.45-2.1-4.73c-0.68-0.62-1.47-0.95-2.29-0.95c-0.8,0-1.55,0.32-2.18,0.91
			c-1.5,1.42-2.23,2.95-2.22,4.66c0,1.46-0.01,2.93-0.02,4.39c-0.01,1.13-0.02,2.25-0.02,3.38c-0.01,2.47-0.01,4.94-0.01,7.41
			c0,3.89-0.01,7.77-0.03,11.66c-0.01,0.9-0.23,2.4-1.65,2.4c-0.41,0-0.87-0.12-1.39-0.35c-1.2-0.54-2.32-1.43-3.15-2.13
			c-2.21-1.88-4.7-3.72-7.83-4.53c-0.92-0.24-1.73-0.35-2.48-0.35c-1.31,0-2.45,0.35-3.48,1.06c-0.91,0.63-1.44,1.12-1.49,1.75
			c-0.04,0.63,0.42,1.19,1.22,1.93c1.23,1.13,2.47,2.25,3.71,3.37c1.01,0.91,2.03,1.83,3.04,2.75H13.2V5.93h70.51V75.58z"/>
	</g>
</g>
</svg>
